<svg xmlns="http://www.w3.org/2000/svg" viewBox="0 0 131.43 253.91"><defs><style>.cls-1{fill:#fff;}</style></defs><g id="Layer_2" data-name="Layer 2"><g id="Layer_1-2" data-name="Layer 1"><path class="cls-1" d="M38.89,138.41H0V93.23H38.7c0-8.45-.24-16.42.06-24.36.35-8.94.11-18.1,2-26.75,5.08-23.3,20.07-37,43.57-40.88,15.65-2.59,31.32-.49,47.1.57V42.37c-1.6,0-3.17,0-4.74,0-9.08.25-18.24-.1-27.23,1-8.53,1-13.16,6.34-13.51,14.92-.47,11.43-.12,22.89-.12,34.79h44.45c-2,15.37-3.89,30.22-5.84,45.42h-39V253.91H38.89Z"/></g></g></svg>