<svg xmlns="http://www.w3.org/2000/svg" viewBox="0 0 135.07 135.05"><defs><style>.cls-1{fill:#fff;}</style></defs><g id="Layer_2" data-name="Layer 2"><g id="Layer_1-2" data-name="Layer 1"><path class="cls-1" d="M135.07,34.58V100.5c-.22,1.38-.36,2.78-.67,4.14-3.44,15.3-12.7,25.11-27.81,29.31-2,.54-4,.74-6.06,1.1H34.62c-.43-.08-.85-.19-1.28-.23A33.43,33.43,0,0,1,22.69,132C8.19,125.15.37,113.67.15,97.61c-.28-20-.08-40.08-.06-60.12A35.41,35.41,0,0,1,4.82,19.21C12.26,6.59,23.41.14,38.06.06,57.74,0,77.43,0,97.11.06a35.78,35.78,0,0,1,7.6.69C120,4.12,129.77,13.42,134,28.51,134.51,30.48,134.71,32.55,135.07,34.58Zm-12,33.09q0-14.69,0-29.39a26.84,26.84,0,0,0-1.36-9.07C117.92,18.47,108.68,12,97,12c-19.6,0-39.19-.06-58.78.05a28.86,28.86,0,0,0-8.92,1.37c-10.8,3.63-17.23,13-17.25,24.65C12,57.72,12,77.36,12.11,97a28.36,28.36,0,0,0,1.34,8.79C17.05,116.54,26.37,123,38,123.07q29.65.08,59.31,0a25,25,0,0,0,21.13-10.66,25.43,25.43,0,0,0,4.72-15.47Q123.08,82.3,123.1,67.67Z"/><path class="cls-1" d="M102.36,67.6A34.79,34.79,0,1,1,67.6,32.75,34.93,34.93,0,0,1,102.36,67.6ZM67.62,44.75A22.79,22.79,0,1,0,90.36,67.59,22.81,22.81,0,0,0,67.62,44.75Z"/><path class="cls-1" d="M103.82,22.63A8.76,8.76,0,1,1,95,31.32,8.81,8.81,0,0,1,103.82,22.63Z"/></g></g></svg>