<svg xmlns="http://www.w3.org/2000/svg" viewBox="0 0 36.9 37.68"><defs><style>.cls-1{fill:#050726;}.cls-2{fill:#d94350;}</style></defs><g id="Layer_2" data-name="Layer 2"><g id="Layer_1-2" data-name="Layer 1"><path class="cls-1" d="M30.76,37.63a6.2,6.2,0,0,1-5.42-3.08L11.2,10.31l-3-5.14A2.35,2.35,0,0,0,5,4.32,2.3,2.3,0,0,0,4,5.74a2.32,2.32,0,0,0,.23,1.77l7.09,12.2,1.7,3a1.93,1.93,0,0,1,.2,1.47,2,2,0,0,1-.89,1.18l-7,4.12a2.33,2.33,0,0,0,2.35,4l0,0,9-5a1.93,1.93,0,0,1,1.86,3.39l-9,5A6.2,6.2,0,0,1,3.34,26.13L8.68,23l-.76-1.36L.84,9.46A6.21,6.21,0,0,1,.21,4.75,6.2,6.2,0,0,1,11.56,3.23l3,5.13L28.68,32.6a2.33,2.33,0,0,0,3.19.85A2.27,2.27,0,0,0,33,32a2.33,2.33,0,0,0-.23-1.77L25.87,18.49a1.92,1.92,0,0,1,.7-2.64l3.63-2.12a5.29,5.29,0,1,0-5.31-9.14L19.32,7.82a1.93,1.93,0,1,1-1.94-3.34l5.56-3.24a9.16,9.16,0,1,1,9.2,15.84l-2,1.14,5.88,10.1a6.18,6.18,0,0,1,.63,4.7,6.21,6.21,0,0,1-5.93,4.61Z"/><rect class="cls-2" x="25.29" y="7.33" width="4.08" height="3.63" rx="1.81" transform="translate(-0.89 14.98) rotate(-30.18)"/></g></g></svg>