<svg xmlns="http://www.w3.org/2000/svg" viewBox="0 0 213.62 175.31"><defs><style>.cls-1{fill:#fff;}</style></defs><g id="Layer_2" data-name="Layer 2"><g id="Layer_1-2" data-name="Layer 1"><path class="cls-1" d="M190.81,27.81l22.81-6.14a75.69,75.69,0,0,1-17,18.43c-3,2.31-4.14,4.63-4.28,8.59-1.74,51-23.62,90.62-69.9,113.37C82.12,181.87,41.33,179,2.18,156.56c-.42-.24-.8-.55-2.18-1.5,24.12,1.93,45.12-3.74,64.37-18.18-20-2.14-33.53-11.89-41-30.9H41.61C18.27,94.76,7.27,80.56,8.27,62.34l18.16,5.07L27,66.35C15.5,57.54,9,46.09,8.48,31.63A41.24,41.24,0,0,1,14.4,8.23C38.27,36.12,68.15,51.53,104,54.07c.47-7,0-13.8,1.52-20.18,7.61-32.9,47.87-45,72.71-22.06,1.67,1.55,3.11,2.16,5.24,1.41,8.13-2.91,16.28-5.76,24.44-8.64-3.14,9.18-9.27,16.55-17.6,22.29Z"/></g></g></svg>